<svg width="177" height="46" viewBox="0 0 177 46" fill="none" xmlns="http://www.w3.org/2000/svg">
<path d="M34.1422 5.85781C30.3647 2.08031 25.3422 0 20 0C14.6578 0 9.63531 2.08031 5.85781 5.85781C2.08031 9.63531 0 14.6578 0 20C0 25.3422 2.08039 30.3646 5.85781 34.1422C9.63523 37.9198 14.6578 40 20 40C25.3422 40 30.3647 37.9197 34.1422 34.1422C37.9197 30.3647 40 25.3422 40 20C40 14.6578 37.9196 9.63539 34.1422 5.85781Z" fill="#33CC95"/>
<g clip-path="url(#clip0)">
<path d="M20.5714 8V33.1429" stroke="white" stroke-width="2" stroke-linecap="round" stroke-linejoin="round"/>
<path d="M26.2857 12.5714H17.7143C16.6534 12.5714 15.636 12.9929 14.8859 13.743C14.1357 14.4931 13.7143 15.5106 13.7143 16.5714C13.7143 17.6323 14.1357 18.6497 14.8859 19.3999C15.636 20.15 16.6534 20.5714 17.7143 20.5714H23.4286C24.4894 20.5714 25.5069 20.9929 26.257 21.743C27.0072 22.4932 27.4286 23.5106 27.4286 24.5714C27.4286 25.6323 27.0072 26.6497 26.257 27.3999C25.5069 28.15 24.4894 28.5714 23.4286 28.5714H13.7143" stroke="white" stroke-width="2" stroke-linecap="round" stroke-linejoin="round"/>
</g>
<g filter="url(#filter0_d)">
<path d="M56.8871 11.55V29H53.3871V11.55H56.8871ZM59.4951 20.25C59.4951 18.5333 59.8785 17 60.6451 15.65C61.4285 14.2833 62.4868 13.225 63.8201 12.475C65.1701 11.7083 66.6785 11.325 68.3451 11.325C70.2951 11.325 72.0035 11.825 73.4701 12.825C74.9368 13.825 75.9618 15.2083 76.5451 16.975H72.5201C72.1201 16.1417 71.5535 15.5167 70.8201 15.1C70.1035 14.6833 69.2701 14.475 68.3201 14.475C67.3035 14.475 66.3951 14.7167 65.5951 15.2C64.8118 15.6667 64.1951 16.3333 63.7451 17.2C63.3118 18.0667 63.0951 19.0833 63.0951 20.25C63.0951 21.4 63.3118 22.4167 63.7451 23.3C64.1951 24.1667 64.8118 24.8417 65.5951 25.325C66.3951 25.7917 67.3035 26.025 68.3201 26.025C69.2701 26.025 70.1035 25.8167 70.8201 25.4C71.5535 24.9667 72.1201 24.3333 72.5201 23.5H76.5451C75.9618 25.2833 74.9368 26.675 73.4701 27.675C72.0201 28.6583 70.3118 29.15 68.3451 29.15C66.6785 29.15 65.1701 28.775 63.8201 28.025C62.4868 27.2583 61.4285 26.2 60.6451 24.85C59.8785 23.5 59.4951 21.9667 59.4951 20.25ZM102.692 14.95C104.392 14.95 105.758 15.475 106.792 16.525C107.842 17.5583 108.367 19.0083 108.367 20.875V29H104.867V21.35C104.867 20.2667 104.592 19.4417 104.042 18.875C103.492 18.2917 102.742 18 101.792 18C100.842 18 100.083 18.2917 99.5166 18.875C98.9666 19.4417 98.6916 20.2667 98.6916 21.35V29H95.1916V21.35C95.1916 20.2667 94.9166 19.4417 94.3666 18.875C93.8166 18.2917 93.0666 18 92.1166 18C91.1499 18 90.3833 18.2917 89.8166 18.875C89.2666 19.4417 88.9916 20.2667 88.9916 21.35V29H85.4916V15.15H88.9916V16.825C89.4416 16.2417 90.0166 15.7833 90.7166 15.45C91.4333 15.1167 92.2166 14.95 93.0666 14.95C94.1499 14.95 95.1166 15.1833 95.9666 15.65C96.8166 16.1 97.4749 16.75 97.9416 17.6C98.3916 16.8 99.0416 16.1583 99.8916 15.675C100.758 15.1917 101.692 14.95 102.692 14.95ZM117.838 29.225C116.505 29.225 115.305 28.9333 114.238 28.35C113.171 27.75 112.33 26.9083 111.713 25.825C111.113 24.7417 110.813 23.4917 110.813 22.075C110.813 20.6583 111.121 19.4083 111.738 18.325C112.371 17.2417 113.23 16.4083 114.313 15.825C115.396 15.225 116.605 14.925 117.938 14.925C119.271 14.925 120.48 15.225 121.563 15.825C122.646 16.4083 123.496 17.2417 124.113 18.325C124.746 19.4083 125.063 20.6583 125.063 22.075C125.063 23.4917 124.738 24.7417 124.088 25.825C123.455 26.9083 122.588 27.75 121.488 28.35C120.405 28.9333 119.188 29.225 117.838 29.225ZM117.838 26.175C118.471 26.175 119.063 26.025 119.613 25.725C120.18 25.4083 120.63 24.9417 120.963 24.325C121.296 23.7083 121.463 22.9583 121.463 22.075C121.463 20.7583 121.113 19.75 120.413 19.05C119.73 18.3333 118.888 17.975 117.888 17.975C116.888 17.975 116.046 18.3333 115.363 19.05C114.696 19.75 114.363 20.7583 114.363 22.075C114.363 23.3917 114.688 24.4083 115.338 25.125C116.005 25.825 116.838 26.175 117.838 26.175ZM135.305 14.95C136.955 14.95 138.289 15.475 139.305 16.525C140.322 17.5583 140.83 19.0083 140.83 20.875V29H137.33V21.35C137.33 20.25 137.055 19.4083 136.505 18.825C135.955 18.225 135.205 17.925 134.255 17.925C133.289 17.925 132.522 18.225 131.955 18.825C131.405 19.4083 131.13 20.25 131.13 21.35V29H127.63V15.15H131.13V16.875C131.597 16.275 132.189 15.8083 132.905 15.475C133.639 15.125 134.439 14.95 135.305 14.95ZM157.034 21.775C157.034 22.275 157 22.725 156.934 23.125H146.809C146.892 24.125 147.242 24.9083 147.859 25.475C148.475 26.0417 149.234 26.325 150.134 26.325C151.434 26.325 152.359 25.7667 152.909 24.65H156.684C156.284 25.9833 155.517 27.0833 154.384 27.95C153.25 28.8 151.859 29.225 150.209 29.225C148.875 29.225 147.675 28.9333 146.609 28.35C145.559 27.75 144.734 26.9083 144.134 25.825C143.55 24.7417 143.259 23.4917 143.259 22.075C143.259 20.6417 143.55 19.3833 144.134 18.3C144.717 17.2167 145.534 16.3833 146.584 15.8C147.634 15.2167 148.842 14.925 150.209 14.925C151.525 14.925 152.7 15.2083 153.734 15.775C154.784 16.3417 155.592 17.15 156.159 18.2C156.742 19.2333 157.034 20.425 157.034 21.775ZM153.409 20.775C153.392 19.875 153.067 19.1583 152.434 18.625C151.8 18.075 151.025 17.8 150.109 17.8C149.242 17.8 148.509 18.0667 147.909 18.6C147.325 19.1167 146.967 19.8417 146.834 20.775H153.409ZM172.838 15.15L164.263 35.55H160.538L163.538 28.65L157.988 15.15H161.913L165.488 24.825L169.113 15.15H172.838Z" fill="white"/>
</g>
<defs>
<filter id="filter0_d" x="49.3871" y="11.325" width="127.451" height="32.225" filterUnits="userSpaceOnUse" color-interpolation-filters="sRGB">
<feFlood flood-opacity="0" result="BackgroundImageFix"/>
<feColorMatrix in="SourceAlpha" type="matrix" values="0 0 0 0 0 0 0 0 0 0 0 0 0 0 0 0 0 0 127 0" result="hardAlpha"/>
<feOffset dy="4"/>
<feGaussianBlur stdDeviation="2"/>
<feComposite in2="hardAlpha" operator="out"/>
<feColorMatrix type="matrix" values="0 0 0 0 0 0 0 0 0 0 0 0 0 0 0 0 0 0 0.25 0"/>
<feBlend mode="normal" in2="BackgroundImageFix" result="effect1_dropShadow"/>
<feBlend mode="normal" in="SourceGraphic" in2="effect1_dropShadow" result="shape"/>
</filter>
<clipPath id="clip0">
<rect width="27.4286" height="27.4286" fill="white" transform="translate(6.85715 6.85714)"/>
</clipPath>
</defs>
</svg>
